<svg xmlns="http://www.w3.org/2000/svg" width="16" height="16" viewBox="0 0 16 16">
  <rect x="-7.719" y="-9.323" width="27.997" height="34.996" fill="none" stroke="#000" stroke-miterlimit="10" stroke-width="0.035"/>
  <path d="M8,0a8,8,0,1,0,8,8A8,8,0,0,0,8,0Zm2.686,3.188a1.166,1.166,0,0,1,1.3-1.067c.6.121.967.717.845,1.545-.1.712-.6,1.259-1.191,1.119A1.442,1.442,0,0,1,10.686,3.188ZM12.576,7.5c-1.337.544-1.737-.937-1.927-1.078a11.893,11.893,0,0,0-1.6,1.728,11.677,11.677,0,0,1,1.607.154c.806.166,1,.735.668,1.416A6.649,6.649,0,0,1,8.6,12.6c-.166.08-.241-.059-.168-.168a16.7,16.7,0,0,0,1.606-2.722c.035-.078-.139-.144-.687-.172a10.779,10.779,0,0,0-1.524,0,.229.229,0,0,0-.236.123,7.064,7.064,0,0,1-3.333,2.642c-1.694.6-3.217.278-2.282.053A6.179,6.179,0,0,0,4.6,11,9.988,9.988,0,0,0,6.34,8.848c.13-.206.264-.408.4-.608L8.772,5.328c-1.683-.587-3.65.858-4.034,1.217-.348.214.419-1.537,2.731-2.175a3.96,3.96,0,0,1,2.6.066,2.91,2.91,0,0,1,1.608,1.525,2.983,2.983,0,0,0,.467.672A3.023,3.023,0,0,0,14,6.067C14.814,5.572,13.924,6.951,12.576,7.5Z" fill="#f68b1f"/>
</svg>
