<svg xmlns="http://www.w3.org/2000/svg" width="16" height="16" viewBox="0 0 16 16">
  <rect x="-6.043" y="-10.885" width="27.997" height="34.996" fill="none" stroke="#000" stroke-miterlimit="10" stroke-width="0.035"/>
  <path d="M14.224,0H1.776A1.683,1.683,0,0,0,0,1.559v9.806a1.647,1.647,0,0,0,.953,1.448l5.633,2.854a3.169,3.169,0,0,0,2.828,0l5.633-2.854A1.647,1.647,0,0,0,16,11.365V1.559A1.683,1.683,0,0,0,14.224,0ZM7.891,3.208a4.275,4.275,0,0,1,4.022,5.718H10.834a3.282,3.282,0,1,0-5.887,0H3.869A4.275,4.275,0,0,1,7.891,3.208ZM2.922,4.3a4.819,4.819,0,0,0-.145,4.512c.017.038.034.077.053.115H1.751A4.275,4.275,0,0,1,2.922,4.3ZM14.5,10.792H1.5V9.877h13Zm-.251-1.866H13.171c.018-.038.035-.077.052-.115A4.819,4.819,0,0,0,13.078,4.3a4.275,4.275,0,0,1,1.171,4.627Z" fill="#c59069"/>
</svg>
