<svg xmlns="http://www.w3.org/2000/svg" width="16" height="16" viewBox="0 0 16 16">
  <rect x="-5.599" y="-10.885" width="27.997" height="34.996" fill="none" stroke="#000" stroke-miterlimit="10" stroke-width="0.035"/>
  <g>
    <path d="M1.545,10.64l2.363,1.572L3.4,15.594,4.417,16l.894-1.047L8,14.9v0l2.691.056L11.58,16l1.023-.406-.513-3.382,2.381-1.584v-.006L16,8.655a10.663,10.663,0,0,0-1.008-2.7l-.051-.092-.44-.5-.12.028c-.081.018-.354.087-.739.183l-.21.053V7.279L9.6,8.46V6.548a4.3,4.3,0,0,1-.738.121.16.16,0,0,1-.139-.046l-.063-.061,0-.1V2.79l.094-.057A20.139,20.139,0,0,1,12.459.821C12.642-.3,3.54-.259,3.725.852A22.559,22.559,0,0,1,7.311,2.733l.094.057V6.558l-.065.065c-.026.025-.048.046-.138.046A5.8,5.8,0,0,1,6.227,6.5V8.46L2.394,7.279V5.566c-.371-.093-.634-.159-.713-.177l-.118-.028-.489.491-.039.086A15.807,15.807,0,0,0,0,8.979l1.548,1.626,0,.035ZM7.9,7.1l1.561,5.184L7.9,12.918l-1.47-.653L7.9,7.1Z" fill="#ee1c25"/>
    <path d="M9,3.041V6.252c.692-.108,3.464-.8,4.568-1.08l.625-.156.293-2.275A19.151,19.151,0,0,0,12.6,1.2,17.376,17.376,0,0,0,9,3.041Z" fill="#ee1c25"/>
    <path d="M1.866,5.016l.626.156c1.1.277,3.876.972,4.569,1.08V3.041A17.045,17.045,0,0,0,3.454,1.2a19.6,19.6,0,0,0-1.88,1.541l.292,2.275Z" fill="#ee1c25"/>
  </g>
</svg>
