<svg xmlns="http://www.w3.org/2000/svg" width="16" height="16" viewBox="0 0 16 16">
  <rect x="-5.972" y="-9.323" width="27.997" height="34.996" fill="none" stroke="#000" stroke-miterlimit="10" stroke-width="0.035"/>
  <g>
    <path d="M4.3,6.771c1.14-.653,6.5-2.867,9.462-4.31a7.992,7.992,0,0,0-12.1,10.411C2.791,10.294,3.268,7.363,4.3,6.771Z" fill="#00a7ea"/>
    <path d="M14.741,3.7C13.3,5.41,9.862,6.72,5.9,8.372A53.452,53.452,0,0,1,2.723,14,7.991,7.991,0,0,0,14.741,3.7ZM3.952,13.671c.337-.5.691-1.08,1.012-1.665,2.162-.373,5.374-.875,6.289-1.208C11.048,12.765,7.873,13.093,3.952,13.671Zm1.34-2.4a13.609,13.609,0,0,0,.972-2.394,76.976,76.976,0,0,0,7.449-2.434C13.76,8.956,10.04,9.964,5.292,11.267Z" fill="#00a7ea"/>
  </g>
</svg>
