<svg xmlns="http://www.w3.org/2000/svg" width="16" height="16" viewBox="0 0 16 16">
  <rect x="-4.175" y="-10.885" width="27.997" height="34.996" fill="none" stroke="#000" stroke-miterlimit="10" stroke-width="0.035"/>
  <path d="M15.011,7.011a7.157,7.157,0,0,0-.52-1.838c-.03-.067-.053-.138-.084-.2V1.593H11.031A7.142,7.142,0,0,0,8.983.983L8,0H8L7.017.983a7.142,7.142,0,0,0-2.048.61H1.593V4.969c-.077.163-.141.333-.206.5-.048.124-.093.248-.134.374a7.232,7.232,0,0,0-.27,1.172L0,8l.992.992c.011.073.018.148.031.22.021.122.035.246.063.366a7.137,7.137,0,0,0,.471,1.364c.013.029.023.06.036.089v1.937h0v.468h0v.971H4.969a7.133,7.133,0,0,0,2.048.61L7.1,15.1h0l.292.292L8,16l.565-.565.3-.3.122-.122a7.142,7.142,0,0,0,2.048-.61h3.376V11.031a7.142,7.142,0,0,0,.61-2.048L16,8h0ZM8,6.44A1.184,1.184,0,1,1,6.816,7.624,1.184,1.184,0,0,1,8,6.44ZM3.372,7.582l-1.124,0A5.754,5.754,0,0,1,5.155,2.623l.532.922L7.175,6.124a1.712,1.712,0,0,0-.886,1.451ZM8,13.376A5.714,5.714,0,0,1,5.113,12.6L5.7,11.585,7.126,9.1A1.713,1.713,0,0,0,8.9,9.084l1.438,2.485.586,1.013A5.721,5.721,0,0,1,8,13.376Zm4.646-5.819-2.933,0a1.713,1.713,0,0,0-.884-1.436l1.489-2.577.533-.922a5.753,5.753,0,0,1,2.9,4.931Z" fill="#88ab2d"/>
</svg>
