<svg xmlns="http://www.w3.org/2000/svg" width="16" height="16" viewBox="0 0 16 16">
  <rect x="-7.021" y="-9.323" width="27.997" height="34.996" fill="none" stroke="#000" stroke-miterlimit="10" stroke-width="0.035"/>
  <g>
    <path d="M8,4.639A3.361,3.361,0,1,0,11.361,8,3.364,3.364,0,0,0,8,4.639ZM8,10.22A2.222,2.222,0,0,1,5.99,7.055.789.789,0,1,0,7.056,5.99,2.22,2.22,0,1,1,8,10.22Z" fill="#565b6d"/>
    <path d="M8,0a8,8,0,1,0,8,8A8,8,0,0,0,8,0Zm5.125,10.266a10.89,10.89,0,0,1-2.279,1.406A6.946,6.946,0,0,1,8,12.323a6.946,6.946,0,0,1-2.846-.651,10.89,10.89,0,0,1-2.279-1.406A13.454,13.454,0,0,1,.786,8.224L.609,8l.177-.225a13.5,13.5,0,0,1,2.089-2.04A10.9,10.9,0,0,1,5.154,4.326,6.974,6.974,0,0,1,8,3.677a6.974,6.974,0,0,1,2.846.649,10.9,10.9,0,0,1,2.279,1.408,13.5,13.5,0,0,1,2.089,2.04L15.391,8l-.177.225A13.454,13.454,0,0,1,13.125,10.266Z" fill="#565b6d"/>
  </g>
</svg>
