<svg xmlns="http://www.w3.org/2000/svg" width="16" height="16" viewBox="0 0 16 16">
  <rect x="-3.677" y="-10.885" width="27.997" height="34.996" fill="none" stroke="#000" stroke-miterlimit="10" stroke-width="0.035"/>
  <path d="M15.011,7.011a7.157,7.157,0,0,0-.52-1.838c-.03-.067-.053-.138-.084-.2V1.593H12.583a3.736,3.736,0,0,1-.366,1.488,4.5,4.5,0,0,1-1.553,1.684.455.455,0,1,1-.46-.786c.065-.045.128-.091.191-.138l.053-.039.106-.088a4.3,4.3,0,0,0,.348-.327q.087-.091.168-.189l.048-.061.055-.075c.026-.038.046-.081.071-.12h-.893a.455.455,0,0,1,0-.91h1.275c0-.016.008-.031.012-.047l.021-.111c0-.014.012-.087.014-.1.006-.059,0-.119.006-.178h-.648A7.142,7.142,0,0,0,8.983.983L8,0H8L7.017.983a7.146,7.146,0,0,0-1.986.586l0,.019V1.6l.006.035c.011.068.032.133.047.2h3.48a.455.455,0,0,1,0,.91H5.462c.032.051.059.1.094.154l.038.051c.017.025.039.049.058.072.049.057.1.113.15.167a4.161,4.161,0,0,0,.342.322c.033.029.067.056.1.084l.032.026.179.131c.133.093.27.181.409.265.284.172.579.327.876.474.606.3,1.228.566,1.82.894a6.261,6.261,0,0,1,1.6,1.2A3.732,3.732,0,0,1,12.1,8.412a3.2,3.2,0,0,1-.117,1.741,3.676,3.676,0,0,1-1.448,1.757.455.455,0,0,1-.459-.786c.048-.031.1-.064.143-.1l.056-.041,0,0c.071-.061.143-.119.21-.184s.134-.132.2-.2c.028-.031.054-.065.082-.1v0l.023-.031c.013-.017.021-.036.033-.053H7.8a.455.455,0,0,1,0-.91h3.419c.009-.044.023-.086.031-.13v0c0-.023,0-.047.007-.07,0-.048.006-.1.007-.145a3.034,3.034,0,0,0-.026-.4c0-.023-.01-.064-.013-.082q-.01-.061-.024-.123L11.2,8.523H9.992a.455.455,0,0,1,0-.91h.823c-.021-.032-.036-.066-.057-.1s-.05-.069-.075-.1l0-.006-.014-.016c-.047-.057-.1-.115-.146-.17a4.3,4.3,0,0,0-.336-.326c-.061-.054-.126-.1-.188-.156l-.026-.02-.094-.069a11.166,11.166,0,0,0-1.746-.974A8.209,8.209,0,0,1,4.8,3.392a3.636,3.636,0,0,1-.678-1.8H1.593V4.969c-.077.163-.141.333-.206.5-.048.124-.093.248-.134.374a7.232,7.232,0,0,0-.27,1.172L0,8l.992.992c.011.073.018.148.031.22.021.122.035.246.063.366a7.137,7.137,0,0,0,.471,1.364c.013.029.023.06.036.089v1.937h0v.468h0v.971H4.1a4.576,4.576,0,0,1,1.515-1.62.455.455,0,0,1,.46.786c-.065.044-.127.091-.19.137l-.054.04-.106.088a4.13,4.13,0,0,0-.348.327q-.087.092-.168.189l-.048.061-.037.05a7.116,7.116,0,0,0,1.9.552L7.1,15.1h0l.292.292L8,16l.565-.565.3-.3.122-.122a7.14,7.14,0,0,0,1.658-.461l-.016-.021c-.049-.057-.1-.113-.15-.167a4.352,4.352,0,0,0-.342-.323l-.1-.083L10,13.936l-.179-.131c-.133-.093-.27-.181-.409-.265-.284-.172-.579-.327-.876-.474-.606-.3-1.228-.566-1.82-.894a6.261,6.261,0,0,1-1.6-1.2A3.736,3.736,0,0,1,4.174,9.14,3.2,3.2,0,0,1,4.292,7.4,3.668,3.668,0,0,1,5.739,5.642a.455.455,0,0,1,.459.785c-.048.032-.1.065-.143.1L6,6.567l0,0c-.071.061-.142.119-.21.183s-.134.133-.2.2c-.028.031-.054.065-.081.1l0,0-.023.031c-.013.017-.021.036-.033.053H8.474a.455.455,0,0,1,0,.91H5.055c-.009.044-.023.086-.031.13v0c0,.023,0,.047-.007.07,0,.048-.006.1-.007.145a3.034,3.034,0,0,0,.026.4c0,.023.01.064.013.082q.01.062.024.123l.006.025H6.285a.455.455,0,0,1,0,.91H5.462c.021.031.036.066.057.1l.075.1,0,.006.014.016c.047.057.1.114.146.17a4.3,4.3,0,0,0,.336.326c.061.054.126.1.188.156l.027.02c.03.023.062.046.093.068a11.085,11.085,0,0,0,1.746.974,8.22,8.22,0,0,1,3.33,2.283c.058.078.109.163.161.247h2.768V11.031a7.142,7.142,0,0,0,.61-2.048L16,8h0Z" fill="#00487a"/>
</svg>
