<svg xmlns="http://www.w3.org/2000/svg" width="16" height="16" viewBox="0 0 16 16">
  <rect x="-6.407" y="-9.323" width="27.997" height="34.996" fill="none" stroke="#000" stroke-miterlimit="10" stroke-width="0.035"/>
  <g>
    <path d="M8,0A7.993,7.993,0,0,0,1.29,12.347L3.49,9.3.4,9.338,5.114,5.252l-.859-.715s5.381-2.651,9.137-1.818c.833,3.756-1.818,9.137-1.818,9.137L10.859,11,6.773,15.713l.042-3.092L3.8,14.8A8,8,0,1,0,8,0Z" fill="#922790"/>
    <path d="M6.152,8.768,1.829,13.091a8.042,8.042,0,0,0,1.2,1.167l3.349-3.349h0L8.822,8.46l.992.224L11,5.076,7.387,6.257l.2,1.08L6.152,8.768Z" fill="#922790"/>
  </g>
</svg>
