<svg xmlns="http://www.w3.org/2000/svg" width="16" height="16" viewBox="0 0 16 16">
  <rect x="-6.831" y="-9.323" width="27.997" height="34.996" fill="none" stroke="#000" stroke-miterlimit="10" stroke-width="0.035"/>
  <path d="M8,0A8,8,0,0,0,.669,11.2L2.49,9.619s.274-1.374.6-3.035S3.7,3.537,3.711,3.5a.6.6,0,0,1,.324-.4,1.232,1.232,0,0,1,.249-.083c.077-.017,3.784-.739,3.9-.76a.709.709,0,0,1,.237,0,.389.389,0,0,1,.257.253c.024.053.049.127.214.626.064.2.282.856.484,1.466s.4,1.366.458,1.54.1.329.1.343a.21.21,0,0,1-.082.145,1.924,1.924,0,0,1-1.517.207,4.589,4.589,0,0,1-.981-1.611c-.027-.083-.051-.15-.053-.15s-.207.067-.207.069c.839,2.6.059,4.355-1.431,6.262,0,0,1.754-1.216,2.484-1.784l.028,2.139.009.03,1.422.167c.825,0,1.5,0,1.5.007s-.438.416-.533.5a2.435,2.435,0,0,1-.725.456c-.036.014-.936.3-2,.638l-1.934.612L4.7,15.284A8,8,0,1,0,8,0ZM9.764,4.617s-.133-.391-.293-.867L9.127,2.728a1.529,1.529,0,0,1-.048-.161c.012-.008,2.325-.62,2.343-.62.107,0,.256.187.4.509a3.1,3.1,0,0,1,.315,1.549c-.035.1.085.061-1.219.355C10.283,4.5,9.765,4.619,9.764,4.617Zm2.614,6.55a1.691,1.691,0,0,1-.135.417.29.29,0,0,1-.105.123c-.015.006-.58-.032-1.751-.118-.95-.07-1.736-.13-1.745-.132a.087.087,0,0,1-.047-.046A2.174,2.174,0,0,1,8.67,10.03C8.7,10,8.7,10,8.739,10c2.824-.083,3.632-.1,3.647-.1C12.51,9.959,12.506,10.6,12.378,11.167Zm.264-1.628c-.01,0-.555.02-1.211.041L9.5,9.642c-.407.014-.752.025-.767.024s-.05-.018-.067-.057A4.308,4.308,0,0,1,8.6,7.848c.03-.081.032-.082.2-.1l.991-.133,1.841-.248c.548-.074,1.008-.133,1.024-.133a.06.06,0,0,1,.048.023A2.739,2.739,0,0,1,12.9,8.6C12.882,9.164,12.787,9.513,12.642,9.539Zm.223-2.855a.159.159,0,0,1-.047.072l-.032.031-1.763.291c-1.79.295-2.044.385-2.025.376-.027-.483.87-.411,1.152-.8a.519.519,0,0,0,.107-.39c0-.03-.091-.333-.191-.673-.113-.386-.178-.621-.174-.625s.555-.133,1.223-.288A9.067,9.067,0,0,1,12.36,4.4c.1.037.208.239.316.586A3.738,3.738,0,0,1,12.865,6.684Z" fill="#0f9444"/>
</svg>
