<svg xmlns="http://www.w3.org/2000/svg" width="16" height="16" viewBox="0 0 16 16">
  <rect x="-4.984" y="-9.323" width="27.997" height="34.996" fill="none" stroke="#000" stroke-miterlimit="10" stroke-width="0.035"/>
  <g>
    <circle cx="2.151" cy="7.587" r="0.656" fill="#cb0c52"/>
    <circle cx="12.104" cy="10.384" r="0.656" fill="#cb0c52"/>
    <path d="M11.957,1.046V6.674l1.622.915a1.142,1.142,0,1,1-.311.782,1.093,1.093,0,0,1,.006-.115L11.226,7.1V.677A7.942,7.942,0,0,0,9.4.122V9.183L8.1,11.005a1.143,1.143,0,1,1-.875-.408,1.2,1.2,0,0,1,.249.027L8.666,8.949V.027Q8.336,0,8,0A7.975,7.975,0,0,0,4.569.771V5.294L5.984,6.833a1.143,1.143,0,1,1-.523.512L3.838,5.579V1.167a8,8,0,0,0,.529,13.962V10.218L2.726,8.576a1.143,1.143,0,1,1,.482-.551L5.1,9.915v5.542a8.04,8.04,0,0,0,4.35.412v-3L11.1,10.939a1.144,1.144,0,1,1,.541.492l-1.466,1.711V15.7A8,8,0,0,0,11.957,1.046Z" fill="#cb0c52"/>
    <circle cx="14.412" cy="8.371" r="0.656" fill="#cb0c52"/>
    <path d="M6.567,11.741a.657.657,0,1,0,1.181-.394l-.324-.231a.67.67,0,0,0-.2-.031A.656.656,0,0,0,6.567,11.741Z" fill="#cb0c52"/>
    <circle cx="6.481" cy="7.863" r="0.656" fill="#cb0c52"/>
  </g>
</svg>
