<svg xmlns="http://www.w3.org/2000/svg" width="16" height="16" viewBox="0 0 16 16">
  <rect x="-4.556" y="-10.885" width="27.997" height="34.996" fill="none" stroke="#000" stroke-miterlimit="10" stroke-width="0.035"/>
  <path d="M14.224,0H1.776A1.683,1.683,0,0,0,0,1.559v9.806a1.647,1.647,0,0,0,.953,1.448l5.633,2.854a3.169,3.169,0,0,0,2.828,0l5.633-2.854A1.647,1.647,0,0,0,16,11.365V1.559A1.683,1.683,0,0,0,14.224,0ZM8.754,1.714l3.857.858v5.1H10.223V6.042H8.754Zm5.733,10.022H1.462v-1.2h.481V5.245h.535V4.92H3.8v.325h.241v5.292h.416V3.17h.523V2.814H7.464V3.17h.523V6.042H6.25v4.5h.416V6.418H9.808v4.119h.415V8.051H13.6v.586h.415v1.9h.474Z" fill="#ec078e"/>
</svg>
