<svg xmlns="http://www.w3.org/2000/svg" width="16" height="16" viewBox="0 0 16 16">
  <rect x="-4.799" y="-10.885" width="27.997" height="34.996" fill="none" stroke="#000" stroke-miterlimit="10" stroke-width="0.035"/>
  <path d="M14.224,0H1.776A1.683,1.683,0,0,0,0,1.559v9.806a1.647,1.647,0,0,0,.953,1.448l5.633,2.854a3.169,3.169,0,0,0,2.828,0l5.633-2.854A1.647,1.647,0,0,0,16,11.365V1.559A1.683,1.683,0,0,0,14.224,0ZM7.994,1.143v0h.012v0l3.769.923-.26,2.173L8.582,6.33l-.22,1.635L8,7.689l-.362.276L7.418,6.33,4.485,4.239l-.26-2.173Zm2.361,7.576,1.881-1.2-.785-.19-1.571.6.047-.188L13.142,5.3l.829,2.882-3.458,2.832.212.221,1.215-.9-.061.427-.9.69.212.221.631-.372-.09.627-1.508,1.014c-.063.313-.118.583-.118.583l-.39.673-.159-1.089L8.15,12.752l-.063-1.324H8.86l.584-1.492,1.144.334,2.567-2.1-.088-.3L10.508,9.877,9.6,9.544l.167-.4L9.634,9.02l-1,1.94H7.363l-1-1.94-.131.121.167.4-.91.333L2.933,7.868l-.088.3,2.568,2.1,1.143-.334.584,1.492h.773L7.85,12.752l-1.409.353-.159,1.089-.39-.673s-.055-.27-.118-.583L4.266,11.924l-.09-.627.631.372.212-.221-.9-.69-.061-.427,1.215.9.212-.221L2.029,8.182,2.858,5.3,6.073,7.739l.047.188-1.571-.6-.784.19,1.88,1.2.873-.552L6.38,7.615,2.562,4.585,2,1.667l1.932.383.2,2.247L7.118,6.591l.211,1.574-.623.475.119.094S7.888,8.239,8,8.19v0l0,0,.005,0v0c.107.049,1.166.54,1.17.544l.119-.094-.623-.475.211-1.574L11.865,4.3l.2-2.247L14,1.667l-.562,2.918L9.62,7.615l-.138.552Z" fill="#38002d"/>
</svg>
