<svg xmlns="http://www.w3.org/2000/svg" width="16" height="16" viewBox="0 0 16 16">
  <rect x="-6.993" y="-10.885" width="27.997" height="34.996" fill="none" stroke="#000" stroke-miterlimit="10" stroke-width="0.035"/>
  <path d="M15.011,7.011a7.157,7.157,0,0,0-.52-1.838c-.03-.067-.053-.138-.084-.2V1.593H11.031A7.142,7.142,0,0,0,8.983.983L8,0H8L7.017.983a7.142,7.142,0,0,0-2.048.61H1.593V4.969c-.077.163-.141.333-.206.5-.048.124-.093.248-.134.374a7.232,7.232,0,0,0-.27,1.172L0,8l.992.992c.011.073.018.148.031.22.021.122.035.246.063.366a7.137,7.137,0,0,0,.471,1.364c.013.029.023.06.036.089v1.937h0v.468h0v.971h.786l-.415-1.47.605-.713.618,2.183H3.5L2.821,12l.605-.713.725,2.562-.489.554H4.969a7.133,7.133,0,0,0,2.048.61L7.1,15.1h0l.292.292L8,16l.565-.565.3-.3.122-.122a7.142,7.142,0,0,0,2.048-.61h3.376V11.031a7.133,7.133,0,0,0,.61-2.048L16,8h0ZM10.2,4.475l1.56,1.642-.308.293L9.887,4.767ZM2.357,7.152l.1-1.321L6.187,2.37l1.065.092Zm2.108,6.37-.718-2.541.605-.713.725,2.562Zm.891-.978L4.637,10l1.461,1.7Zm3.074.978-5.8-6.107,4.9-4.654,5.8,6.107Zm5.1-3.076L9.8,13.906l-1.059-.1L13.6,9.146Z" fill="#978359"/>
</svg>
